<svg id="eraser" xmlns="http://www.w3.org/2000/svg" width="36" height="32.681" viewBox="0 0 36 32.681">
  <path id="eraser-2" data-name="eraser" d="M36.248,18.8a5.087,5.087,0,0,0,0-7.217L27.914,3.245a5.221,5.221,0,0,0-7.232-.015L3.267,20.644a5.087,5.087,0,0,0-.015,7.232l3.185,3.185H3.876a1.7,1.7,0,0,0,0,3.4H34.485a1.7,1.7,0,0,0,0-3.4h-10.5ZM23.1,5.619a1.616,1.616,0,0,1,1.18-.49,1.653,1.653,0,0,1,1.212.505l8.35,8.35a1.708,1.708,0,0,1,.505,1.212,1.679,1.679,0,0,1-.505,1.2l-5.1,5.1L17.983,10.737Z" transform="translate(-1.75 -1.782)" fill="#dbeaef"/>
</svg>
