<svg id="folder" xmlns="http://www.w3.org/2000/svg" width="34.166" height="31.21" viewBox="0 0 34.166 31.21">
  <path id="Path_37" data-name="Path 37" d="M134.425,27.6h-10.4l-2.833-4.625a.986.986,0,0,0-.84-.471h-7.834A2.517,2.517,0,0,0,110,25.014V44.377a2.517,2.517,0,0,0,2.514,2.514h21.91a2.517,2.517,0,0,0,2.514-2.514V30.111a2.517,2.517,0,0,0-2.514-2.514Z" transform="translate(-102.773 -22.5)" fill="#a9c7d0"/>
  <path id="Path_38" data-name="Path 38" d="M5.256,141.333V126.275H2.514A2.517,2.517,0,0,0,0,128.789v19.363a2.517,2.517,0,0,0,2.514,2.514h21.91a2.517,2.517,0,0,0,2.514-2.514v-2.333H9.742a4.49,4.49,0,0,1-4.485-4.485Z" transform="translate(0 -119.457)" fill="#a9c7d0"/>
  <path id="Path_45" data-name="Path 45" d="M134.425,27.6h-10.4l-2.833-4.625a.986.986,0,0,0-.84-.471h-7.834A2.517,2.517,0,0,0,110,25.014V44.377a2.517,2.517,0,0,0,2.514,2.514h21.91a2.517,2.517,0,0,0,2.514-2.514V30.111a2.517,2.517,0,0,0-2.514-2.514Z" transform="translate(-102.773 -22.5)" fill="#a9c7d0"/>
  <path id="Path_46" data-name="Path 46" d="M5.256,141.333V126.275H2.514A2.517,2.517,0,0,0,0,128.789v19.363a2.517,2.517,0,0,0,2.514,2.514h21.91a2.517,2.517,0,0,0,2.514-2.514v-2.333H9.742a4.49,4.49,0,0,1-4.485-4.485Z" transform="translate(0 -119.457)" fill="#a9c7d0"/>
</svg>
