<svg id="folder_1_" data-name="folder (1)" xmlns="http://www.w3.org/2000/svg" width="101.876" height="91.176" viewBox="0 0 101.876 91.176">
  <path id="Path_40" data-name="Path 40" d="M93.06,44.4H52.584L41.444,26.39A2.945,2.945,0,0,0,38.938,25H8.816A8.783,8.783,0,0,0,0,33.73v73.717a8.783,8.783,0,0,0,8.816,8.73H93.06a8.783,8.783,0,0,0,8.816-8.73V53.132A8.783,8.783,0,0,0,93.06,44.4Z" transform="translate(0 -25)" fill="#a9c7d0"/>
  <path id="Path_41" data-name="Path 41" d="M297.764,54.7V53.73A8.783,8.783,0,0,0,288.947,45H254.58l6,9.7Z" transform="translate(-204.704 -41.12)" fill="#a9c7d0"/>
</svg>
