<svg id="selected" xmlns="http://www.w3.org/2000/svg" width="35" height="35" viewBox="0 0 35 35">
  <path id="Path_70" data-name="Path 70" d="M24.792,9.552A2.555,2.555,0,0,0,22.24,7H2.552A2.555,2.555,0,0,0,0,9.552V29.24a2.555,2.555,0,0,0,2.552,2.552H22.24a2.555,2.555,0,0,0,2.552-2.552Z" transform="translate(0 3.208)" fill="#dbeaef"/>
  <path id="Path_71" data-name="Path 71" d="M24.833,7.292a1.458,1.458,0,0,1-1.458-1.458V4.375a1.46,1.46,0,0,0-1.458-1.458H20.458a1.458,1.458,0,1,1,0-2.917h1.458a4.38,4.38,0,0,1,4.375,4.375V5.833A1.458,1.458,0,0,1,24.833,7.292Z" transform="translate(8.708)" fill="#dbeaef"/>
  <path id="Path_72" data-name="Path 72" d="M5.458,7.292A1.458,1.458,0,0,1,4,5.833V4.375A4.38,4.38,0,0,1,8.375,0H9.833a1.458,1.458,0,0,1,0,2.917H8.375A1.46,1.46,0,0,0,6.917,4.375V5.833A1.458,1.458,0,0,1,5.458,7.292Z" transform="translate(1.833)" fill="#dbeaef"/>
  <path id="Path_73" data-name="Path 73" d="M18.292,2.917H12.458a1.458,1.458,0,0,1,0-2.917h5.833a1.458,1.458,0,1,1,0,2.917Z" transform="translate(5.042)" fill="#dbeaef"/>
  <path id="Path_74" data-name="Path 74" d="M21.917,22.292H20.458a1.458,1.458,0,1,1,0-2.917h1.458a1.46,1.46,0,0,0,1.458-1.458V16.458a1.458,1.458,0,1,1,2.917,0v1.458A4.38,4.38,0,0,1,21.917,22.292Z" transform="translate(8.708 6.875)" fill="#dbeaef"/>
  <path id="Path_75" data-name="Path 75" d="M23.458,15.75A1.458,1.458,0,0,1,22,14.292V8.458a1.458,1.458,0,1,1,2.917,0v5.833A1.458,1.458,0,0,1,23.458,15.75Z" transform="translate(10.083 3.208)" fill="#dbeaef"/>
</svg>
