<svg id="question_1_" data-name="question (1)" xmlns="http://www.w3.org/2000/svg" width="26.31" height="26.31" viewBox="0 0 26.31 26.31">
  <path id="question_1_2" data-name="question (1)" d="M13.155,0A13.155,13.155,0,1,0,26.31,13.155,13.17,13.17,0,0,0,13.155,0Zm0,20.829a1.1,1.1,0,1,1,1.1-1.1A1.1,1.1,0,0,1,13.155,20.829Zm1.735-6.97a1.1,1.1,0,0,0-.639,1v.492a1.1,1.1,0,1,1-2.192,0v-.492a3.3,3.3,0,0,1,1.913-2.988A3.583,3.583,0,0,0,15.9,9.318a2.741,2.741,0,0,0-5.481,0,1.1,1.1,0,1,1-2.193,0,4.933,4.933,0,1,1,9.866,0A5.712,5.712,0,0,1,14.89,13.859Zm0,0" fill="#dbeaef"/>
</svg>
