<svg id="Redo" xmlns="http://www.w3.org/2000/svg" width="30.71" height="37" viewBox="0 0 30.71 37">
  <path id="Path_85" data-name="Path 85" d="M20.343,10.033h7.872l-2.85-2.807a2.173,2.173,0,0,1,0-3.09,2.214,2.214,0,0,1,3.114,0l6.578,6.528a2.164,2.164,0,0,1,0,3.09l-6.578,6.528a2.214,2.214,0,0,1-3.114,0,2.173,2.173,0,0,1,0-3.09l2.85-2.807H20.343a10.88,10.88,0,1,0,10.963,10.88,2.193,2.193,0,0,1,4.385,0A15.349,15.349,0,1,1,20.343,10.033Z" transform="translate(-4.994 -3.496)" fill="#468da2"/>
</svg>
