<svg id="save_file" data-name="save file" xmlns="http://www.w3.org/2000/svg" width="30" height="30" viewBox="0 0 30 30">
  <path id="Path_82" data-name="Path 82" d="M30.71,7.29l-6-6A1,1,0,0,0,24,1H22V9a2,2,0,0,1-2,2H12a2,2,0,0,1-2-2V1H4A3,3,0,0,0,1,4V28a3,3,0,0,0,3,3H6V22a3,3,0,0,1,3-3H23a3,3,0,0,1,3,3v9h2a3,3,0,0,0,3-3V8a1,1,0,0,0-.29-.71Z" transform="translate(-1 -1)" fill="#dbeaef"/>
  <path id="Path_83" data-name="Path 83" d="M12,1h8V9H12Z" transform="translate(-1 -1)" fill="#dbeaef"/>
  <path id="Path_84" data-name="Path 84" d="M23,21H9a1,1,0,0,0-1,1v9H24V22A1,1,0,0,0,23,21Z" transform="translate(-1 -1)" fill="#dbeaef"/>
</svg>
