<svg id="Component_1_2" data-name="Component 1 – 2" xmlns="http://www.w3.org/2000/svg" width="35.769" height="31.21" viewBox="0 0 35.769 31.21">
  <g id="customer" transform="translate(0 0)">
    <circle id="Ellipse_1" data-name="Ellipse 1" cx="6" cy="6" r="6" transform="translate(12 0)" fill="#a9c7d0"/>
    <circle id="Ellipse_2" data-name="Ellipse 2" cx="3.5" cy="3.5" r="3.5" transform="translate(27 5)" fill="#a9c7d0"/>
    <circle id="Ellipse_3" data-name="Ellipse 3" cx="3.5" cy="3.5" r="3.5" transform="translate(2 5)" fill="#a9c7d0"/>
    <path id="Path_17" data-name="Path 17" d="M9.375,241.61c-1.512-1.239-2.882-1.075-4.631-1.075A4.735,4.735,0,0,0,0,245.25v7.63a2.053,2.053,0,0,0,2.055,2.047c4.892,0,4.3.089,4.3-.211C6.357,249.309,5.717,245.345,9.375,241.61Z" transform="translate(0 -226.004)" fill="#a9c7d0"/>
    <path id="Path_18" data-name="Path 18" d="M131.336,239.932c-3.055-.255-5.71,0-8,1.893-3.832,3.07-3.095,7.2-3.095,12.259a2.451,2.451,0,0,0,2.447,2.447c14.746,0,15.333.476,16.208-1.461.287-.655.208-.447.208-6.712C139.1,243.383,134.8,239.932,131.336,239.932Z" transform="translate(-111.788 -225.374)" fill="#a9c7d0"/>
    <path id="Path_19" data-name="Path 19" d="M382.441,240.537c-1.758,0-3.121-.162-4.631,1.075,3.63,3.707,3.017,7.4,3.017,13.105,0,.3-.489.211,4.229.211a2.126,2.126,0,0,0,2.128-2.12v-7.557A4.735,4.735,0,0,0,382.441,240.537Z" transform="translate(-351.416 -226.006)" fill="#a9c7d0"/>
  </g>
</svg>
