<svg id="Undo" xmlns="http://www.w3.org/2000/svg" width="30.71" height="37" viewBox="0 0 30.71 37">
  <path id="Path_85" data-name="Path 85" d="M20.356,10.033H12.484l2.85-2.807a2.173,2.173,0,0,0,0-3.09,2.214,2.214,0,0,0-3.114,0L5.643,10.664a2.164,2.164,0,0,0,0,3.09l6.578,6.528a2.214,2.214,0,0,0,3.114,0,2.173,2.173,0,0,0,0-3.09l-2.85-2.807h7.872A10.88,10.88,0,1,1,9.392,25.264a2.193,2.193,0,0,0-4.385,0A15.349,15.349,0,1,0,20.356,10.033Z" transform="translate(-4.994 -3.496)" fill="#468da2"/>
</svg>
