<svg id="Component_377_3" data-name="Component 377 – 3" xmlns="http://www.w3.org/2000/svg" xmlns:xlink="http://www.w3.org/1999/xlink" width="119.294" height="31" viewBox="0 0 119.294 31">
  <defs>
    <linearGradient id="linear-gradient" x1="0.159" y1="0.802" x2="0.88" y2="-0.028" gradientUnits="objectBoundingBox">
      <stop offset="0" stop-color="#0a3763"/>
      <stop offset="0.85" stop-color="#0e7087"/>
    </linearGradient>
  </defs>
  <g id="Group_44" data-name="Group 44" transform="translate(-3494 3941.576)">
    <path id="Path_57" data-name="Path 57" d="M415.858,423.03a6.619,6.619,0,0,1-1.4-4.5,7.01,7.01,0,0,1,1.309-4.535,4.476,4.476,0,0,1,3.68-1.61,15.787,15.787,0,0,1,4.633,1.028v-1.917a17.527,17.527,0,0,0-4.643-.662,6.89,6.89,0,0,0-5.3,2.021,9.522,9.522,0,0,0-.025,11.347,6.979,6.979,0,0,0,5.35,1.986,13.439,13.439,0,0,0,2.569-.276v-1.64a7.756,7.756,0,0,1-2.243.366A4.944,4.944,0,0,1,415.858,423.03Z" transform="translate(3176.107 -4345.631)" fill="#468da2"/>
    <rect id="Rectangle_46" data-name="Rectangle 46" width="2.065" height="7.553" transform="translate(3598.629 -3927.121)" fill="#468da2"/>
    <rect id="Rectangle_47" data-name="Rectangle 47" width="3.279" height="2.065" transform="translate(3595.346 -3927.121)" fill="#468da2"/>
    <path id="Path_58" data-name="Path 58" d="M128.43,439.16v-2.015h-1.946v10.729h1.946V440.8q1.245-2.193,3.092-2.193a2.868,2.868,0,0,1,.889.168v-1.818a4.157,4.157,0,0,0-.622-.049A3.633,3.633,0,0,0,128.43,439.16Z" transform="translate(3418.057 -4367.707)" fill="#0a3763"/>
    <path id="Path_59" data-name="Path 59" d="M183.57,446.767q-1.028,0-1.028-1.67v-4.861a3.326,3.326,0,0,0-.855-2.52,3.745,3.745,0,0,0-2.653-.81,9.806,9.806,0,0,0-3.685.8v1.61a7.166,7.166,0,0,1,3.329-.948,1.673,1.673,0,0,1,1.917,1.867v1.294h-.464a7.885,7.885,0,0,0-4.233.943,3.022,3.022,0,0,0-1.477,2.7,2.784,2.784,0,0,0,.879,2.109,3.086,3.086,0,0,0,2.213.835,5.108,5.108,0,0,0,3.369-1.611q.375,1.611,1.739,1.611a3.349,3.349,0,0,0,1.462-.316l-.138-1.077A2.576,2.576,0,0,1,183.57,446.767Zm-2.974-1.314a4.055,4.055,0,0,1-2.529,1.077,1.657,1.657,0,0,1-1.205-.484,1.6,1.6,0,0,1-.494-1.186,1.819,1.819,0,0,1,.988-1.6,4.888,4.888,0,0,1,2.588-.608l.652.02Z" transform="translate(3377.47 -4367.707)" fill="#0a3763"/>
    <path id="Path_60" data-name="Path 60" d="M258.884,436.907a3.842,3.842,0,0,0-3.586,2.253v-2.015h-1.946v14.632H255.3v-5.118a4.174,4.174,0,0,0,6.486-.173,6.859,6.859,0,0,0,1.26-4.3,6.09,6.09,0,0,0-1.112-3.863A3.666,3.666,0,0,0,258.884,436.907Zm-.721,9.751a4.421,4.421,0,0,1-2.865-1.344v-4.94a4.335,4.335,0,0,1,3.181-1.769q2.49,0,2.49,3.774Q260.968,446.658,258.162,446.658Z" transform="translate(3310.643 -4367.707)" fill="#0a3763"/>
    <path id="Path_61" data-name="Path 61" d="M342.124,411.322a4.492,4.492,0,0,0-3.774,2.252v-6.886H336.4v15.6h1.946v-6.945Q339.931,413,341.719,413a1.309,1.309,0,0,1,1.161.509,3.112,3.112,0,0,1,.351,1.7v7.074h1.946v-7.706a3.332,3.332,0,0,0-.83-2.376A2.9,2.9,0,0,0,342.124,411.322Z" transform="translate(3240.325 -4342.122)" fill="#0a3763"/>
    <path id="Path_62" data-name="Path 62" d="M516.973,438.414a5.394,5.394,0,0,0-7.479,0,6.768,6.768,0,0,0,0,8.18,4.7,4.7,0,0,0,3.675,1.527,4.915,4.915,0,0,0,3.8-1.5,6.786,6.786,0,0,0,0-8.205Zm-3.779,8.245q-3,0-3-4.15t3.043-4.14q3.053,0,3.053,4.12Q516.287,446.659,513.194,446.658Z" transform="translate(3094.943 -4367.707)" fill="#468da2"/>
    <path id="Path_63" data-name="Path 63" d="M28.738,422.88a6.618,6.618,0,0,1-1.4-4.5,7.011,7.011,0,0,1,1.309-4.535,4.476,4.476,0,0,1,3.68-1.61,15.788,15.788,0,0,1,4.634,1.027v-1.917a17.525,17.525,0,0,0-4.643-.662,6.89,6.89,0,0,0-5.3,2.02,9.523,9.523,0,0,0-.025,11.347,6.979,6.979,0,0,0,5.35,1.986,13.429,13.429,0,0,0,2.569-.276v-1.64a7.755,7.755,0,0,1-2.243.366A4.945,4.945,0,0,1,28.738,422.88Z" transform="translate(3503.868 -4345.505)" fill="#0a3763"/>
    <rect id="Rectangle_48" data-name="Rectangle 48" width="2.065" height="7.553" transform="translate(3539.27 -3927.145)" fill="#0a3763"/>
    <rect id="Rectangle_49" data-name="Rectangle 49" width="3.279" height="2.065" transform="translate(3535.987 -3927.145)" fill="#0a3763"/>
  </g>
  <g id="Group_45" data-name="Group 45" transform="translate(6.229 1.871)">
    <g id="Group_37" data-name="Group 37" transform="translate(0 0)">
      <rect id="Rectangle_63" data-name="Rectangle 63" width="31" height="31" rx="6" transform="translate(-6.229 -1.871)" fill="#a9c7d0"/>
      <path id="Path_64" data-name="Path 64" d="M242.323,200.68l-.016-.016-.015.016a8.249,8.249,0,0,1-2.2,1.645l.011.01a5.48,5.48,0,0,1-6.477,8.749v-3.653l-.006-4.663a8.079,8.079,0,0,1-1.006-.429l-.02-.01a8.232,8.232,0,0,1-1.725-1.18l-.007-.006q-.245-.219-.473-.457a8.176,8.176,0,0,0-2.247,5.283q-.008.182-.008.367t.008.367c0,.075.008.149.013.223a8.227,8.227,0,1,0,14.171-6.247Z" transform="translate(-228.109 -186.8)" fill="url(#linear-gradient)"/>
      <path id="Path_65" data-name="Path 65" d="M245.708,90.843h-3.4a8.2,8.2,0,0,1-.155,11.133l-.015.016a8.253,8.253,0,0,0-2.22-1.658l.011-.01a5.479,5.479,0,1,0-9.231-4.031l.006,5.221v.943q-.245-.219-.473-.456l-.015-.016a8.179,8.179,0,0,1-2.262-5.657c0-.011,0-.023,0-.034a8.22,8.22,0,0,1,7.818-8.17l.042,0h9.9Z" transform="translate(-227.951 -88.112)" fill="#468da2"/>
      <path id="Path_66" data-name="Path 66" d="M253.1,173.68v.051a8.082,8.082,0,0,1-1.006-.429l-.02-.01a8.231,8.231,0,0,1-1.725-1.18V167.55a8.182,8.182,0,0,0,2.082,5.462q.089.1.18.2Q252.846,173.454,253.1,173.68Z" transform="translate(-247.591 -157.763)" fill="#468da2"/>
      <g id="Group_36" data-name="Group 36" transform="translate(2.743)">
        <path id="Path_67" data-name="Path 67" d="M292.16,88.054q-.184,0-.367.008h.734Q292.345,88.054,292.16,88.054Z" transform="translate(-286.676 -88.054)" fill="#0e7087"/>
        <path id="Path_68" data-name="Path 68" d="M252.989,159.272a5.525,5.525,0,0,1-.992-.735l-.011-.01a5.512,5.512,0,0,1-1.752-4.03l.006,5.221v.943l.007.006V156.1a8.182,8.182,0,0,0,2.082,5.462q.089.1.18.2.23.242.479.464Z" transform="translate(-250.234 -146.317)" fill="#0e7087"/>
        <path id="Path_69" data-name="Path 69" d="M287.395,187.323a5.481,5.481,0,0,1-5.3,1.239v2.819a8.273,8.273,0,0,0,5.3-.745l.019-.01a8.248,8.248,0,0,0,2.2-1.645A8.253,8.253,0,0,0,287.395,187.323Z" transform="translate(-278.174 -175.101)" fill="#0e7087"/>
      </g>
    </g>
  </g>
</svg>
